<?xml version="1.0" standalone="no"?>
<!DOCTYPE svg PUBLIC "-//W3C//DTD SVG 20010904//EN"
 "http://www.w3.org/TR/2001/REC-SVG-20010904/DTD/svg10.dtd">
<svg version="1.0" xmlns="http://www.w3.org/2000/svg"
 width="456.000000pt" height="456.000000pt" viewBox="0 0 456.000000 456.000000"
 preserveAspectRatio="xMidYMid meet">
<metadata>
Created by potrace 1.14, written by Peter Selinger 2001-2017
</metadata>
<g transform="translate(0.000000,456.000000) scale(0.100000,-0.100000)"
fill="#000000" stroke="none">
<path d="M2470 4493 c0 -5 23 -24 51 -42 52 -36 87 -76 75 -88 -3 -4 -25 3
-49 14 -23 12 -73 28 -112 38 -38 9 -99 28 -135 43 -62 25 -74 27 -235 27
-178 0 -285 -16 -388 -56 -26 -11 -64 -19 -85 -19 -42 0 -82 -9 -82 -19 0 -3
5 -13 10 -21 8 -13 23 -16 128 -21 12 -1 22 -3 22 -4 0 -2 -33 -13 -72 -25
-40 -12 -113 -40 -163 -63 -157 -70 -300 -140 -306 -149 -8 -12 -142 -75 -200
-94 -52 -17 -61 -29 -30 -39 12 -3 40 4 68 18 26 13 53 22 60 20 19 -7 -99
-143 -158 -183 -53 -35 -89 -66 -204 -170 -33 -31 -72 -67 -87 -80 -16 -13
-28 -30 -28 -37 0 -21 27 -15 62 15 39 33 108 74 108 64 0 -4 -9 -22 -21 -41
-11 -18 -31 -62 -44 -97 -13 -34 -56 -125 -95 -201 -100 -196 -125 -296 -121
-498 4 -279 7 -318 26 -360 10 -22 17 -47 16 -56 -1 -9 5 -22 14 -29 8 -7 12
-17 9 -22 -3 -5 5 -26 19 -46 41 -59 74 -152 82 -225 3 -37 13 -74 21 -81 8
-8 14 -22 14 -30 0 -9 4 -16 9 -16 5 0 17 -21 27 -48 21 -57 18 -53 41 -56 10
-1 25 -16 33 -34 20 -42 44 -52 37 -15 -7 33 10 112 29 133 7 8 18 44 24 80
13 67 58 151 162 307 34 51 56 75 76 80 23 5 74 35 92 53 4 4 24 18 110 74 8
5 -16 -21 -53 -60 -97 -98 -101 -103 -94 -110 4 -4 33 11 65 33 51 35 66 40
113 40 33 0 65 6 80 16 13 8 35 18 49 22 31 10 247 143 317 197 45 34 59 40
122 45 40 3 74 10 77 14 3 5 15 9 27 9 18 -1 12 -10 -36 -55 -97 -92 -305
-222 -366 -230 -33 -4 -101 -41 -101 -54 0 -10 96 -3 130 9 33 12 91 15 113 5
26 -11 267 49 339 86 51 26 130 79 140 96 5 6 34 26 65 43 32 18 74 46 94 61
20 16 40 29 43 29 14 0 -51 -86 -98 -131 -34 -33 8 -23 62 14 77 53 102 63
112 47 7 -11 14 -10 38 6 53 34 122 104 158 160 19 30 36 54 38 54 2 0 0 -17
-5 -37 -5 -21 -13 -57 -18 -80 -4 -23 -19 -55 -32 -72 -58 -74 -70 -91 -65
-91 17 0 77 46 109 85 21 25 46 45 56 45 10 0 30 16 45 35 28 36 89 158 99
197 6 21 7 20 30 -12 12 -19 26 -42 29 -50 4 -8 37 -53 75 -99 37 -45 87 -110
111 -143 39 -55 42 -57 42 -31 l0 28 20 -30 c11 -16 20 -38 20 -47 0 -20 26
-63 101 -166 62 -87 85 -112 102 -112 8 0 7 4 -1 12 -7 7 -12 16 -12 22 0 5
23 -24 51 -65 27 -41 60 -82 72 -92 12 -11 32 -40 44 -65 39 -86 26 -8 -17
100 -41 101 -47 135 -14 81 56 -93 101 -153 121 -164 50 -27 63 -66 70 -213 3
-75 10 -136 15 -136 4 0 8 8 8 18 0 10 6 26 13 37 8 11 24 47 37 80 13 33 36
72 51 88 33 32 44 35 29 6 -10 -18 -9 -20 7 -17 23 4 37 48 64 192 11 61 25
119 30 129 14 26 39 153 39 198 0 21 5 39 10 39 6 0 10 -8 10 -18 0 -10 7 -28
17 -41 14 -21 18 -22 27 -8 15 20 -13 254 -49 414 -29 132 -30 134 -9 105 8
-12 19 -20 23 -17 11 6 1 96 -11 112 -5 7 -7 17 -4 22 4 6 2 18 -3 28 -5 10
-17 38 -27 63 -10 25 -29 61 -42 80 -13 19 -35 56 -48 82 -24 47 -64 112 -85
136 -6 7 -8 16 -5 19 3 4 -2 16 -12 27 -10 12 -29 38 -42 60 l-23 39 26 -18
c31 -20 35 -14 10 14 -9 11 -18 26 -19 34 -3 20 -35 67 -45 67 -5 0 -9 6 -9
14 0 14 -59 77 -141 152 -43 39 -64 65 -64 80 0 6 -7 17 -15 25 -16 16 -82 49
-98 49 -5 0 -15 7 -23 16 -7 8 -34 27 -61 40 -26 13 -48 29 -48 35 0 5 -5 7
-11 4 -5 -4 -19 1 -30 11 -13 12 -43 19 -105 23 l-87 6 42 23 c23 13 68 26
103 30 79 9 86 27 15 42 -45 9 -62 8 -98 -5 -177 -64 -167 -62 -176 -37 -11
27 -82 115 -111 137 l-27 20 18 -28 c9 -15 15 -27 12 -27 -3 0 2 -16 10 -36
20 -49 20 -50 -16 -20 -17 14 -36 26 -42 27 -7 0 -30 24 -52 52 -27 35 -60 62
-100 83 -155 82 -155 82 -155 67z m-735 -133 c-27 -12 -43 -12 -25 0 8 5 22 9
30 9 10 0 8 -3 -5 -9z m1611 -426 c18 -14 18 -14 -6 -3 -31 14 -36 19 -24 19
6 0 19 -7 30 -16z m-1995 -861 c-12 -20 -14 -14 -5 12 4 9 9 14 11 11 3 -2 0
-13 -6 -23z m2646 -5 c-3 -8 -6 -5 -6 6 -1 11 2 17 5 13 3 -3 4 -12 1 -19z"/>
<path d="M3020 2480 c0 -15 27 -23 48 -15 16 7 15 8 -3 15 -28 12 -45 12 -45
0z"/>
<path d="M2893 2453 c-15 -5 -17 -23 -4 -23 5 0 11 7 15 15 3 8 4 15 3 14 -1
0 -8 -3 -14 -6z"/>
<path d="M4096 2379 c6 -47 22 -87 25 -59 3 37 -4 76 -16 89 -12 12 -13 7 -9
-30z"/>
<path d="M1448 2125 c-2 -2 -20 -5 -39 -7 -39 -2 -135 -47 -178 -84 -50 -41
-73 -104 -39 -104 6 0 9 3 5 6 -14 14 53 114 76 114 5 0 32 12 60 26 29 14 53
21 55 15 2 -5 11 -8 20 -5 14 4 14 3 -2 -8 -54 -38 -66 -52 -72 -84 -3 -19
-10 -37 -15 -40 -16 -10 -9 -51 15 -94 13 -23 27 -42 32 -43 5 -1 8 -7 6 -13
-4 -19 23 -34 62 -36 20 -1 39 -5 42 -10 3 -4 -3 -5 -13 -1 -16 6 -16 5 -4
-10 17 -21 16 -21 36 0 14 14 18 14 25 2 9 -14 62 -22 92 -13 9 3 20 14 23 25
4 11 15 19 29 19 29 0 53 26 59 65 3 17 6 35 7 40 7 29 -1 38 -15 18 -12 -18
-20 -20 -42 -12 -16 4 -40 11 -56 14 -15 3 -41 18 -58 33 -26 23 -28 29 -17
44 16 22 117 43 132 28 24 -24 26 -7 2 20 -15 18 -23 38 -20 48 5 13 4 14 -4
3 -8 -11 -11 -11 -18 1 -11 18 -51 29 -116 33 -26 2 -51 6 -56 9 -5 3 -11 3
-14 1z m52 -276 c0 -11 -4 -17 -10 -14 -5 3 -10 13 -10 21 0 8 5 14 10 14 6 0
10 -9 10 -21z m-36 -4 c23 -17 21 -20 -19 -29 -19 -4 -25 -3 -16 2 9 7 10 12
2 16 -15 10 -14 26 2 26 6 0 21 -7 31 -15z"/>
<path d="M2977 2123 c-15 -3 -33 -13 -40 -24 -6 -10 -20 -19 -29 -19 -10 0
-18 -4 -18 -10 0 -5 -9 -10 -20 -10 -14 0 -27 -15 -44 -52 -33 -72 -34 -86 -7
-140 33 -68 80 -105 127 -99 6 1 17 -6 24 -14 14 -17 75 -20 85 -5 3 6 16 10
28 10 28 0 97 46 97 64 0 8 7 17 16 20 10 4 14 15 12 32 -3 23 -8 27 -45 28
-24 1 -43 -2 -43 -7 0 -5 -6 -7 -12 -4 -7 2 -13 10 -13 17 0 8 -16 18 -35 22
-33 9 -60 31 -60 50 0 15 71 40 89 32 9 -4 36 -8 59 -9 39 -1 42 0 25 12 -10
8 -17 22 -15 32 1 10 -7 22 -20 28 -13 6 -34 16 -48 22 -22 10 -20 11 20 7 60
-7 69 -9 106 -29 38 -20 94 -82 94 -105 1 -19 27 -58 35 -51 19 19 -49 139
-79 139 -5 0 -20 9 -32 21 -12 11 -39 25 -61 31 -41 11 -151 17 -196 11z m65
-25 c-9 -9 -15 -9 -24 0 -9 9 -7 12 12 12 19 0 21 -3 12 -12z m-82 -232 c0 -2
3 -11 6 -20 5 -12 0 -16 -19 -16 -36 0 -57 10 -57 26 0 9 12 14 35 14 19 0 35
-2 35 -4z"/>
<path d="M2270 222 c0 -21 -2 -24 -10 -12 -8 12 -10 11 -10 -7 0 -13 -6 -24
-12 -25 -37 -4 -78 -8 -126 -11 -28 -2 -57 -8 -64 -15 -8 -8 -17 -8 -31 -1
-14 8 -26 8 -42 -1 -13 -7 -37 -10 -54 -8 -17 3 -31 1 -31 -3 0 -10 59 -39 81
-39 10 0 24 -8 31 -18 16 -21 63 -43 103 -48 17 -2 55 -7 85 -12 111 -16 333
17 346 53 3 7 21 16 40 20 33 6 54 28 41 42 -4 3 -28 6 -54 7 -26 1 -54 5 -61
10 -7 4 -28 5 -47 2 -19 -4 -36 -2 -40 4 -3 5 -17 7 -29 4 -16 -4 -25 0 -29
10 -4 9 -13 16 -21 16 -9 0 -13 6 -10 13 5 15 -9 30 -38 40 -14 5 -18 1 -18
-21z"/>
<path d="M2120 180 c0 -5 5 -10 10 -10 6 0 10 5 10 10 0 6 -4 10 -10 10 -5 0
-10 -4 -10 -10z"/>
<path d="M1790 171 c0 -10 19 -25 25 -20 1 2 -3 10 -11 17 -8 7 -14 8 -14 3z"/>
<path d="M1840 140 c0 -4 9 -10 20 -13 11 -3 20 -2 20 3 0 4 -9 10 -20 13 -11
3 -20 2 -20 -3z"/>
</g>
</svg>
